<svg width="6" height="13" viewBox="0 0 6 13" fill="none" xmlns="http://www.w3.org/2000/svg">
<path d="M1.0401 0.933393C1.16533 0.932958 1.28906 0.961217 1.40221 1.01609C1.51535 1.07097 1.61504 1.15107 1.69393 1.25051L5.74266 6.39288C5.86595 6.54623 5.93335 6.7386 5.93335 6.93711C5.93335 7.13563 5.86595 7.32799 5.74266 7.48135L1.55143 12.6237C1.40915 12.7987 1.20469 12.9088 0.983034 12.9297C0.761379 12.9506 0.540685 12.8806 0.369501 12.7351C0.198318 12.5897 0.0906663 12.3806 0.0702305 12.154C0.0497942 11.9274 0.118247 11.7017 0.260529 11.5267L4.00749 6.93283L0.386267 2.33897C0.283763 2.21317 0.218651 2.05998 0.198634 1.89752C0.178617 1.73507 0.204533 1.57015 0.273316 1.42228C0.342099 1.27442 0.45087 1.14979 0.586758 1.06315C0.722646 0.976508 0.879965 0.93148 1.0401 0.933393Z" fill="white"/>
</svg>
