<svg width="22" height="17" viewBox="0 0 22 17" fill="none" xmlns="http://www.w3.org/2000/svg">
<path d="M19.9809 4.98083L15.3334 9.62833L13.925 8.23083L12.3975 9.76917L15.3225 12.6942L21.5192 6.51917L19.9809 4.98083ZM2.33335 4.66667C2.32001 5.23938 2.42298 5.80884 2.63603 6.34062C2.84907 6.87239 3.16778 7.35542 3.57285 7.7605C3.97793 8.16558 4.46096 8.48428 4.99274 8.69733C5.52451 8.91037 6.09398 9.01334 6.66669 9C7.2394 9.01334 7.80886 8.91037 8.34064 8.69733C8.87241 8.48428 9.35545 8.16558 9.76052 7.7605C10.1656 7.35542 10.4843 6.87239 10.6973 6.34062C10.9104 5.80884 11.0134 5.23938 11 4.66667C11.0134 4.09396 10.9104 3.52449 10.6973 2.99272C10.4843 2.46094 10.1656 1.97791 9.76052 1.57283C9.35545 1.16775 8.87241 0.849054 8.34064 0.636006C7.80886 0.422959 7.2394 0.319991 6.66669 0.333333C6.09398 0.319991 5.52451 0.422959 4.99274 0.636006C4.46096 0.849054 3.97793 1.16775 3.57285 1.57283C3.16778 1.97791 2.84907 2.46094 2.63603 2.99272C2.42298 3.52449 2.32001 4.09396 2.33335 4.66667ZM8.83335 4.66667C8.84729 4.95489 8.80078 5.24284 8.69683 5.51202C8.59287 5.7812 8.43376 6.02566 8.22972 6.2297C8.02568 6.43374 7.78122 6.59285 7.51204 6.69681C7.24286 6.80076 6.95491 6.84727 6.66669 6.83333C6.37847 6.84727 6.09052 6.80076 5.82134 6.69681C5.55216 6.59285 5.30769 6.43374 5.10365 6.2297C4.89961 6.02566 4.7405 5.7812 4.63655 5.51202C4.53259 5.24284 4.48609 4.95489 4.50002 4.66667C4.48609 4.37845 4.53259 4.0905 4.63655 3.82131C4.7405 3.55213 4.89961 3.30767 5.10365 3.10363C5.30769 2.89959 5.55216 2.74048 5.82134 2.63653C6.09052 2.53257 6.37847 2.48607 6.66669 2.5C6.95491 2.48607 7.24286 2.53257 7.51204 2.63653C7.78122 2.74048 8.02568 2.89959 8.22972 3.10363C8.43376 3.30767 8.59287 3.55213 8.69683 3.82131C8.80078 4.0905 8.84729 4.37845 8.83335 4.66667ZM2.33335 15.5C2.33335 14.638 2.67576 13.8114 3.28526 13.2019C3.89475 12.5924 4.7214 12.25 5.58335 12.25H7.75002C8.61197 12.25 9.43863 12.5924 10.0481 13.2019C10.6576 13.8114 11 14.638 11 15.5V16.5833H13.1667V15.5C13.1667 14.7887 13.0266 14.0843 12.7544 13.4271C12.4822 12.7699 12.0832 12.1728 11.5802 11.6698C11.0772 11.1669 10.4801 10.7679 9.82289 10.4957C9.16571 10.2234 8.46135 10.0833 7.75002 10.0833H5.58335C4.14676 10.0833 2.76901 10.654 1.75319 11.6698C0.73737 12.6857 0.166687 14.0634 0.166687 15.5V16.5833H2.33335V15.5Z" fill="white"/>
</svg>
