<svg width="14" height="20" viewBox="0 0 14 20" fill="none" xmlns="http://www.w3.org/2000/svg">
<path d="M7.69231 0C7.16346 0 6.71074 0.188301 6.33413 0.564904C5.95753 0.941506 5.76923 1.39423 5.76923 1.92308C5.76923 2.45192 5.95753 2.90465 6.33413 3.28125C6.71074 3.65785 7.16346 3.84615 7.69231 3.84615C8.22115 3.84615 8.67388 3.65785 9.05048 3.28125C9.42708 2.90465 9.61538 2.45192 9.61538 1.92308C9.61538 1.39423 9.42708 0.941506 9.05048 0.564904C8.67388 0.188301 8.22115 0 7.69231 0ZM3.30529 19.4231L5.33654 16.0938C5.5609 15.7252 5.72917 15.3566 5.84135 14.988L6.53846 12.6803L8.64183 14.8798L10.4808 19.2909C10.5689 19.5072 10.7071 19.6795 10.8954 19.8077C11.0837 19.9359 11.2981 20 11.5385 20C11.859 20 12.1314 19.8878 12.3558 19.6635C12.5801 19.4391 12.6923 19.1667 12.6923 18.8462C12.6923 18.7099 12.6643 18.5657 12.6082 18.4135L10.9255 14.2668C10.8213 14.0024 10.7392 13.8241 10.6791 13.732C10.619 13.6398 10.4848 13.4816 10.2764 13.2572L7.90865 10.7091L8.62981 7.31971L9.30288 8.62981C9.43109 8.90224 9.60737 9.09856 9.83173 9.21875C9.87981 9.24279 10.7091 9.66346 12.3197 10.4808C12.7043 10.6731 12.9567 10.7692 13.0769 10.7692C13.3013 10.7692 13.4856 10.6971 13.6298 10.5529C13.774 10.4087 13.8462 10.2244 13.8462 10C13.8462 9.67147 13.6939 9.42708 13.3894 9.26683L10.637 7.80048L9.55529 5.32452C9.35497 4.88381 9.09054 4.64343 8.76202 4.60337L6.00961 4.29087C5.7532 4.26683 5.40865 4.34295 4.97596 4.51923L2.06731 5.67308C1.90705 5.73718 1.7508 5.84535 1.59856 5.9976C1.44631 6.14984 1.34615 6.30609 1.29808 6.46635C0.665064 8.10096 0.248397 9.19071 0.0480769 9.73558C0.0160256 9.80769 0 9.89583 0 10C0 10.2083 0.0761218 10.3886 0.228365 10.5409C0.380609 10.6931 0.560897 10.7692 0.769231 10.7692C0.929487 10.7692 1.09175 10.7312 1.25601 10.655C1.42027 10.5789 1.52644 10.4808 1.57452 10.3606L2.80048 7.13942L5.32452 6.1899L3.55769 14.4471L1.29808 18.2933C1.20192 18.4776 1.15385 18.6619 1.15385 18.8462C1.15385 19.1667 1.26603 19.4391 1.49038 19.6635C1.71474 19.8878 1.98718 20 2.30769 20C2.74038 20 3.07292 19.8077 3.30529 19.4231Z" fill="white"/>
</svg>
