<svg width="4" height="16" viewBox="0 0 4 16" fill="none" xmlns="http://www.w3.org/2000/svg">
<path d="M0.875 1.625C0.875 1.32663 0.993526 1.04048 1.2045 0.829505C1.41548 0.618526 1.70163 0.5 2 0.5C2.29837 0.5 2.58452 0.618526 2.7955 0.829505C3.00647 1.04048 3.125 1.32663 3.125 1.625V10.625C3.125 10.9234 3.00647 11.2095 2.7955 11.4205C2.58452 11.6315 2.29837 11.75 2 11.75C1.70163 11.75 1.41548 11.6315 1.2045 11.4205C0.993526 11.2095 0.875 10.9234 0.875 10.625V1.625ZM0.875 14.375C0.875 14.0766 0.993526 13.7905 1.2045 13.5795C1.41548 13.3685 1.70163 13.25 2 13.25C2.29837 13.25 2.58452 13.3685 2.7955 13.5795C3.00647 13.7905 3.125 14.0766 3.125 14.375C3.125 14.6734 3.00647 14.9595 2.7955 15.1705C2.58452 15.3815 2.29837 15.5 2 15.5C1.70163 15.5 1.41548 15.3815 1.2045 15.1705C0.993526 14.9595 0.875 14.6734 0.875 14.375Z" fill="white"/>
</svg>
