<svg width="19" height="21" viewBox="0 0 19 21" fill="none" xmlns="http://www.w3.org/2000/svg">
<path d="M7.56866 1.38406C7.7243 0.999388 7.99127 0.669956 8.33535 0.437994C8.67943 0.206031 9.08494 0.0821075 9.49991 0.0821075C9.91488 0.0821075 10.3204 0.206031 10.6645 0.437994C11.0086 0.669956 11.2755 0.999388 11.4312 1.38406C12.9715 1.80769 14.3302 2.72527 15.2986 3.99587C16.267 5.26647 16.7915 6.81984 16.7916 8.4174V13.3101L18.6999 16.1726C18.8046 16.3295 18.8647 16.5118 18.8738 16.7002C18.883 16.8886 18.8408 17.0759 18.7519 17.2422C18.6629 17.4084 18.5305 17.5474 18.3687 17.6444C18.2069 17.7413 18.0218 17.7924 17.8332 17.7924H13.1093C12.9839 18.6602 12.55 19.4538 11.8871 20.0278C11.2242 20.6017 10.3767 20.9176 9.49991 20.9176C8.62308 20.9176 7.7756 20.6017 7.11272 20.0278C6.44985 19.4538 6.01596 18.6602 5.89054 17.7924H1.16658C0.977992 17.7924 0.792936 17.7413 0.631152 17.6444C0.469369 17.5474 0.336928 17.4084 0.24796 17.2422C0.158991 17.0759 0.116833 16.8886 0.125983 16.7002C0.135132 16.5118 0.195246 16.3295 0.299912 16.1726L2.20824 13.3101V8.4174C2.20824 5.05906 4.47908 2.2299 7.56866 1.38406ZM8.02699 17.7924C8.13457 18.0972 8.33406 18.3612 8.59795 18.5479C8.86185 18.7346 9.17716 18.8349 9.50043 18.8349C9.8237 18.8349 10.139 18.7346 10.4029 18.5479C10.6668 18.3612 10.8663 18.0972 10.9739 17.7924H8.02595H8.02699ZM9.49991 3.20906C8.11857 3.20906 6.79381 3.7578 5.81706 4.73455C4.84031 5.7113 4.29158 7.03606 4.29158 8.4174V13.6257C4.29162 13.8315 4.23073 14.0327 4.11658 14.2039L3.11345 15.7091H15.8853L14.8822 14.2039C14.7684 14.0325 14.7079 13.8314 14.7082 13.6257V8.4174C14.7082 7.03606 14.1595 5.7113 13.1828 4.73455C12.206 3.7578 10.8812 3.20906 9.49991 3.20906Z" fill="black"/>
</svg>
